<svg xmlns="http://www.w3.org/2000/svg" xmlns:xlink="http://www.w3.org/1999/xlink" width="1080" zoomAndPan="magnify" viewBox="0 0 810 809.999993" height="1080" preserveAspectRatio="xMidYMid meet" version="1.0"><defs><g/><clipPath id="a12f8ec9f3"><path d="M 243.765625 263.976562 L 655.695312 263.976562 L 655.695312 633.441406 L 243.765625 633.441406 Z M 243.765625 263.976562 " clip-rule="nonzero"/></clipPath><clipPath id="b5c1549240"><path d="M 0.765625 0.976562 L 412.695312 0.976562 L 412.695312 370.441406 L 0.765625 370.441406 Z M 0.765625 0.976562 " clip-rule="nonzero"/></clipPath><clipPath id="e0c507b649"><rect x="0" width="413" y="0" height="371"/></clipPath><clipPath id="9b7598b0eb"><rect x="0" width="259" y="0" height="416"/></clipPath></defs><path fill="#ffffff" d="M 138.472656 738.871094 L 50.609375 629.410156 C 29.46875 603.078125 17.996094 570.691406 17.996094 537.359375 L 17.996094 141.003906 C 17.996094 91.074219 57.9375 49.644531 109.46875 46.128906 L 516.980469 18.304688 C 546.585938 16.285156 576.011719 24.152344 600.332031 40.597656 L 743.503906 137.398438 C 769.136719 154.726562 784.402344 183.050781 784.402344 213.28125 L 784.402344 663.902344 C 784.402344 712.761719 745.125 753.214844 694.667969 756.320312 L 242.382812 784.164062 C 202.121094 786.640625 163.203125 769.679688 138.472656 738.871094 Z M 138.472656 738.871094 " fill-opacity="1" fill-rule="evenodd"/><path fill="#000000" d="M 279.800781 339.339844 L 279.800781 334.152344 C 279.800781 321 290.335938 310.089844 303.914062 309.183594 L 402.816406 302.578125 L 539.585938 503.984375 L 539.585938 327.214844 L 504.382812 322.523438 L 504.382812 320.0625 C 504.382812 306.75 515.15625 295.769531 528.910156 295.066406 L 618.898438 290.457031 L 618.898438 303.40625 C 618.898438 309.484375 614.375 314.6875 608.179688 315.734375 L 586.523438 319.398438 L 586.523438 605.667969 L 559.347656 615.011719 C 536.640625 622.820312 511.367188 614.464844 498.367188 594.851562 L 365.585938 394.484375 L 365.585938 585.722656 L 406.457031 593.542969 L 405.886719 597.332031 C 404.101562 609.207031 393.851562 618.191406 381.449219 618.742188 L 279.800781 623.265625 C 278.457031 610.496094 288.027344 599.074219 301.230469 597.6875 L 314.601562 596.28125 L 314.601562 341.296875 Z M 279.800781 339.339844 " fill-opacity="1" fill-rule="nonzero"/><path fill="#000000" d="M 520.625 68.238281 L 113.117188 96.0625 C 88.707031 97.730469 69.785156 117.351562 69.785156 141.003906 L 69.785156 537.359375 C 69.785156 559.582031 77.4375 581.171875 91.53125 598.730469 L 179.394531 708.1875 C 193.601562 725.882812 215.957031 735.628906 239.085938 734.207031 L 691.375 706.367188 C 714.554688 704.9375 732.601562 686.347656 732.601562 663.902344 L 732.601562 213.28125 C 732.601562 199.390625 725.589844 186.378906 713.8125 178.417969 L 570.636719 81.613281 C 556.042969 71.75 538.390625 67.027344 520.625 68.238281 Z M 133.324219 147.183594 C 127.65625 142.988281 130.355469 134.246094 137.476562 133.734375 L 523.367188 106.058594 C 535.664062 105.175781 547.878906 108.5625 557.824219 115.605469 L 635.25 170.460938 C 638.1875 172.542969 636.8125 177.039062 633.171875 177.238281 L 224.511719 199.464844 C 212.144531 200.136719 199.9375 196.503906 190.105469 189.222656 Z M 205.34375 269.136719 C 205.34375 255.863281 216.070312 244.894531 229.785156 244.148438 L 661.851562 220.617188 C 675.222656 219.890625 686.472656 230.171875 686.472656 243.109375 L 686.472656 633.296875 C 686.472656 646.550781 675.785156 657.503906 662.097656 658.285156 L 232.765625 682.710938 C 217.886719 683.558594 205.34375 672.128906 205.34375 657.726562 Z M 205.34375 269.136719 " fill-opacity="1" fill-rule="evenodd"/><g clip-path="url(#a12f8ec9f3)"><g transform="matrix(1, 0, 0, 1, 243, 263)"><g clip-path="url(#e0c507b649)"><g clip-path="url(#b5c1549240)"><path fill="#ffffff" d="M 0.765625 0.976562 L 412.085938 0.976562 L 412.085938 370.441406 L 0.765625 370.441406 Z M 0.765625 0.976562 " fill-opacity="1" fill-rule="nonzero"/></g></g></g></g><g transform="matrix(1, 0, 0, 1, 313, 268)"><g clip-path="url(#9b7598b0eb)"><g fill="#000000" fill-opacity="1"><g transform="translate(46.664684, 331.887415)"><g><path d="M 84.9375 -115.953125 C 1.550781 -147.179688 -20.132812 -208.273438 19.875 -299.234375 C 25.007812 -311.253906 35.414062 -319.492188 51.09375 -323.953125 C 66.226562 -328.421875 86.769531 -330.65625 112.71875 -330.65625 C 147.851562 -329.164062 168.867188 -323.285156 175.765625 -313.015625 C 190.359375 -290.035156 197.25 -267.023438 196.4375 -243.984375 C 195.632812 -220.941406 190.972656 -200.90625 182.453125 -183.875 L 125.890625 -191.171875 C 137.921875 -211.171875 139.546875 -229.078125 130.765625 -244.890625 C 126.972656 -252.191406 117.710938 -255.773438 102.984375 -255.640625 C 86.765625 -255.640625 76.5625 -254.222656 72.375 -251.390625 C 64.800781 -248.140625 60.613281 -243.40625 59.8125 -237.1875 C 55.882812 -212.320312 66.492188 -195.296875 91.640625 -186.109375 C 160.835938 -154.347656 196.039062 -118.734375 197.25 -79.265625 C 197.789062 -32.097656 191.914062 -4.386719 179.625 3.859375 C 157.457031 20.335938 126.234375 30.40625 85.953125 34.0625 C 44.597656 34.0625 19.9375 18.113281 11.96875 -13.78125 C 7.769531 -33.789062 7.429688 -62.578125 10.953125 -100.140625 L 63.65625 -102.578125 C 64.0625 -90.679688 64.804688 -80.75 65.890625 -72.78125 C 68.316406 -54.125 77.910156 -43.515625 94.671875 -40.953125 C 116.835938 -41.222656 129.945312 -50.476562 134 -68.71875 C 138.050781 -82.644531 121.695312 -98.390625 84.9375 -115.953125 Z M 84.9375 -115.953125 "/></g></g></g></g></g></svg>